<svg width="20" height="21" viewBox="0 0 20 21" fill="none" xmlns="http://www.w3.org/2000/svg">
<g id="Notification 2">
<g id="Iconly/Bold/Notification">
<g id="Notification">
<path id="Vector" d="M8.30267 16.5232C8.71926 16.4351 11.2578 16.4351 11.6743 16.5232C12.0305 16.6055 12.4156 16.7977 12.4156 17.2173C12.3949 17.6168 12.1605 17.971 11.8367 18.1959C11.4168 18.5233 10.924 18.7306 10.4088 18.8053C10.1239 18.8422 9.84398 18.843 9.56902 18.8053C9.05304 18.7306 8.56025 18.5233 8.14117 18.1951C7.81651 17.971 7.58212 17.6168 7.56142 17.2173C7.56142 16.7977 7.94654 16.6055 8.30267 16.5232ZM10.0377 2.16663C11.7712 2.16663 13.5419 2.98914 14.5937 4.35385C15.2762 5.2326 15.5892 6.1105 15.5892 7.47521V7.83023C15.5892 8.87684 15.8659 9.49373 16.4746 10.2046C16.9359 10.7283 17.0834 11.4006 17.0834 12.13C17.0834 12.8585 16.844 13.5501 16.3645 14.1116C15.7367 14.7847 14.8513 15.2144 13.9477 15.2891C12.6383 15.4007 11.3281 15.4947 10.0004 15.4947C8.67197 15.4947 7.36256 15.4385 6.05315 15.2891C5.14873 15.2144 4.26337 14.7847 3.63641 14.1116C3.15687 13.5501 2.91669 12.8585 2.91669 12.13C2.91669 11.4006 3.06494 10.7283 3.52543 10.2046C4.15322 9.49373 4.41162 8.87684 4.41162 7.83023V7.47521C4.41162 6.07358 4.76113 5.15706 5.48085 4.25984C6.55091 2.95137 8.26615 2.16663 9.96317 2.16663H10.0377Z" fill="#2D416F"/>
</g>
</g>
<circle id="Ellipse 36" cx="15" cy="4.5" r="2.5" fill="#E05453" stroke="white"/>
</g>
</svg>
